<?xml version="1.0" standalone="no"?>
<!DOCTYPE svg PUBLIC "-//W3C//DTD SVG 20010904//EN"
 "http://www.w3.org/TR/2001/REC-SVG-20010904/DTD/svg10.dtd">
<svg version="1.0" xmlns="http://www.w3.org/2000/svg"
 width="517.000000pt" height="553.000000pt" viewBox="0 0 517.000000 553.000000"
 preserveAspectRatio="xMidYMid meet">
<metadata>
Created by potrace 1.16, written by Peter Selinger 2001-2019
</metadata>
<g transform="translate(0.000000,553.000000) scale(0.100000,-0.100000)"
fill="#000000" stroke="none">
<path d="M1110 5296 c-8 -7 -152 -107 -320 -221 -168 -114 -306 -209 -308
-210 -1 -1 -50 -177 -108 -391 -81 -297 -104 -399 -101 -429 3 -22 26 -137 51
-255 24 -118 64 -305 86 -415 l42 -200 63 -75 c34 -41 167 -201 294 -355 l233
-279 331 -229 c266 -184 390 -277 622 -471 312 -260 636 -516 654 -516 9 0
161 115 356 269 39 30 189 154 334 276 205 170 339 271 593 446 l328 227 294
353 294 354 15 75 c119 565 167 801 167 820 0 19 -207 791 -213 796 -1 1 -148
101 -326 223 -271 185 -330 221 -359 221 -48 0 -737 -48 -789 -55 -34 -5 -105
-49 -360 -222 -175 -119 -325 -216 -333 -216 -8 0 -159 97 -334 217 l-319 218
-181 13 c-656 50 -685 52 -706 31z m250 -30 c102 -8 268 -20 370 -27 102 -7
193 -15 203 -18 15 -6 4 -27 -75 -149 -51 -79 -138 -212 -193 -297 -55 -85
-181 -280 -280 -432 l-180 -278 -7 75 c-3 41 -11 271 -17 510 -6 239 -14 479
-17 533 -4 54 -3 97 2 97 5 0 92 -6 194 -14z m2760 8 c0 -13 -624 -1123 -628
-1119 -4 4 -45 270 -71 465 -24 175 -82 567 -87 583 -3 9 -2 17 3 18 18 1 740
56 761 58 12 0 22 -2 22 -5z m365 -222 c149 -101 274 -188 278 -192 5 -4 -72
-54 -170 -110 -98 -57 -234 -136 -303 -176 -463 -268 -752 -434 -756 -434 -2
0 9 24 26 53 17 28 159 283 316 565 l287 513 26 -17 c14 -10 148 -100 296
-202z m-3347 -194 c7 -222 15 -493 18 -603 4 -133 3 -197 -4 -190 -5 6 -69 84
-142 175 -73 91 -211 263 -307 382 -96 119 -175 220 -176 224 -2 7 581 413
594 414 3 0 11 -181 17 -402z m1170 142 c166 -113 302 -207 302 -210 0 -3
-147 -84 -327 -180 -180 -96 -392 -210 -472 -253 -81 -43 -193 -103 -251 -134
-58 -31 -123 -66 -145 -78 -141 -78 -177 -96 -169 -84 7 13 570 881 691 1067
30 46 58 82 62 80 4 -2 143 -95 309 -208z m996 168 c3 -18 17 -112 31 -208 38
-268 85 -583 104 -707 10 -62 15 -113 12 -113 -5 0 -556 461 -730 611 l-42 37
303 205 c167 114 306 206 309 207 4 0 9 -15 13 -32z m1496 -351 c0 -1 42 -160
94 -352 52 -192 93 -352 91 -354 -2 -2 -66 26 -142 62 -138 65 -319 151 -530
250 -61 28 -108 56 -104 60 11 11 574 336 584 337 4 0 7 -1 7 -3z m-3953 -431
c160 -199 290 -362 289 -363 -1 -2 -52 1 -112 7 -103 9 -416 34 -569 45 -38 3
-89 8 -112 11 -38 6 -41 8 -33 28 4 12 24 84 45 161 55 210 125 466 137 505
l11 34 26 -34 c14 -18 157 -196 318 -394z m1791 257 c1 -54 9 -264 17 -468 8
-203 17 -437 20 -518 l6 -148 -43 25 c-24 14 -190 113 -370 218 -180 106 -328
195 -328 198 0 3 26 35 58 71 31 36 120 137 197 224 254 288 437 495 439 495
1 0 3 -44 4 -97z m-89 58 c-8 -10 -66 -77 -129 -148 -63 -71 -205 -231 -315
-356 l-200 -227 -50 0 c-52 0 -420 26 -537 38 l-67 7 437 235 c642 344 835
448 852 459 22 14 24 13 9 -8z m526 -295 c170 -144 325 -275 345 -293 l35 -31
-149 -221 c-82 -122 -152 -224 -157 -227 -5 -3 -12 3 -16 13 -3 10 -58 144
-121 298 -120 295 -301 740 -310 765 -3 8 10 2 29 -14 18 -16 173 -146 344
-290z m-385 244 c0 -4 61 -158 136 -342 75 -183 169 -416 211 -517 41 -101 71
-187 66 -191 -4 -5 -42 -13 -83 -18 -41 -6 -124 -18 -184 -27 -83 -13 -110
-14 -116 -5 -4 6 -10 107 -14 223 -4 117 -9 257 -11 312 -2 55 -7 174 -10 265
-3 91 -8 200 -11 244 -4 56 -3 77 5 72 6 -4 11 -11 11 -16z m1425 -267 c-7
-27 -41 -156 -75 -288 -34 -132 -82 -319 -107 -415 -25 -96 -48 -187 -51 -202
-2 -16 -7 -28 -11 -28 -7 0 -355 605 -358 623 -2 11 579 354 604 356 9 1 9
-11 -2 -46z m152 23 c26 -13 199 -95 383 -181 184 -86 338 -160 342 -163 3 -4
-6 -65 -21 -137 -16 -71 -50 -233 -76 -360 -26 -126 -53 -252 -59 -280 l-12
-49 -288 554 c-159 305 -299 574 -312 598 -12 23 -19 42 -14 42 5 0 30 -11 57
-24z m100 -371 c94 -181 230 -441 301 -577 71 -137 127 -248 125 -248 -3 0
-47 9 -97 20 -50 12 -120 27 -156 35 -36 8 -128 28 -205 45 -77 17 -171 38
-210 46 -38 9 -97 22 -131 30 -33 8 -68 14 -77 14 -18 0 -18 12 3 85 5 17 36
136 69 265 109 427 142 555 150 585 5 17 12 43 16 59 l6 29 18 -29 c9 -16 94
-177 188 -359z m-3837 -1 c118 -9 219 -20 223 -24 4 -4 -33 -114 -83 -246 -50
-131 -114 -301 -143 -377 l-52 -139 -11 44 c-7 23 -26 113 -43 198 -18 85 -39
187 -47 225 -50 232 -70 335 -65 335 3 0 103 -7 221 -16z m3102 -249 c79 -137
158 -275 176 -306 l32 -57 -32 8 c-18 4 -150 38 -293 75 -143 37 -279 72 -303
77 l-43 10 18 28 c100 155 289 427 295 421 4 -3 71 -118 150 -256z m-2567 205
c72 -6 157 -12 190 -15 33 -2 164 -11 290 -20 127 -9 249 -19 273 -23 l42 -7
-439 -440 c-242 -241 -442 -437 -445 -435 -3 5 -46 245 -66 380 -14 92 -89
533 -95 558 -6 23 -5 24 57 18 35 -3 122 -10 193 -16z m-226 -355 c28 -165 60
-356 72 -425 11 -69 25 -150 29 -180 5 -30 25 -149 44 -264 20 -116 34 -211
32 -213 -2 -2 -21 18 -42 44 -21 27 -136 165 -254 308 -119 143 -219 265 -223
272 -4 7 8 52 27 100 19 48 79 207 134 353 125 330 124 327 128 315 2 -5 26
-145 53 -310z m1268 172 c87 -52 249 -148 360 -214 l202 -119 -196 -289 c-618
-912 -736 -1085 -739 -1082 -1 1 2 29 6 62 5 33 11 89 14 125 4 36 13 128 21
205 8 77 22 208 30 290 8 83 22 214 30 292 24 224 43 415 60 578 27 265 25
257 40 251 8 -3 85 -47 172 -99z m-241 -96 c-9 -80 -23 -210 -31 -289 -8 -78
-21 -206 -30 -285 -8 -78 -22 -212 -30 -297 -9 -85 -22 -213 -30 -285 -7 -71
-22 -208 -31 -303 -17 -162 -19 -171 -35 -155 -9 10 -169 218 -354 462 l-338
443 444 444 c299 300 445 439 447 428 2 -9 -3 -82 -12 -163z m1314 -179 c19
-16 204 -158 410 -316 206 -159 383 -296 393 -306 18 -16 10 -20 -165 -85
-275 -102 -340 -125 -353 -125 -7 0 -140 143 -297 318 -417 464 -427 476 -420
483 4 4 61 14 127 24 66 10 140 21 165 25 85 14 104 11 140 -18z m133 -11
c112 -30 382 -100 466 -122 42 -10 148 -35 236 -54 88 -20 219 -49 290 -65 72
-16 182 -41 245 -55 141 -31 148 -32 185 -40 27 -6 18 -11 -85 -50 -394 -150
-605 -224 -614 -216 -6 4 -177 135 -381 291 -398 305 -430 330 -421 330 4 0
39 -9 79 -19z m-306 -378 c136 -153 285 -318 330 -368 45 -49 78 -93 75 -96
-4 -4 -119 -48 -257 -98 -137 -51 -268 -99 -290 -108 -22 -8 -50 -19 -63 -24
-28 -11 -55 -12 -48 -1 2 4 -2 153 -9 332 -7 179 -16 406 -19 505 -6 179 -6
180 13 157 11 -12 131 -147 268 -299z m-313 42 c3 -115 11 -333 17 -483 7
-161 8 -276 3 -281 -5 -4 -47 -22 -94 -39 -91 -33 -527 -195 -728 -269 -67
-25 -124 -44 -126 -42 -2 2 55 90 128 196 72 106 230 339 351 518 382 565 430
633 436 622 4 -7 9 -106 13 -222z m2065 -62 c-15 -20 -497 -603 -508 -616 -4
-4 -43 1 -87 12 -43 11 -149 36 -234 57 -85 20 -213 51 -284 68 l-129 32 359
133 c198 73 436 161 529 196 94 35 213 79 265 98 52 20 97 36 99 37 2 0 -3 -8
-10 -17z m-3697 -278 c51 -66 112 -146 411 -540 71 -93 135 -176 141 -184 14
-19 -1 -10 -64 34 -25 18 -142 99 -260 180 -118 81 -217 149 -219 151 -2 1
-19 94 -37 206 -19 112 -37 209 -39 216 -10 28 15 4 67 -63z m2453 -487 c36
-141 65 -262 65 -268 0 -16 -5 -14 -340 127 -442 186 -441 185 -435 192 4 3
147 58 318 122 267 100 313 114 319 100 4 -9 37 -132 73 -273z m285 211 c69
-16 187 -44 263 -61 75 -18 137 -35 137 -38 -1 -4 -528 -371 -564 -392 -9 -5
-32 70 -81 265 -37 150 -70 279 -73 288 -3 15 8 14 95 -8 54 -13 154 -37 223
-54z m-1089 -316 c-6 -65 -17 -208 -26 -318 -9 -110 -22 -281 -30 -380 -8 -99
-16 -197 -17 -217 -1 -21 -4 -38 -6 -38 -23 0 -885 707 -877 720 2 4 33 17 67
30 35 12 243 89 463 170 436 161 429 158 433 155 2 -2 -1 -56 -7 -122z m394
-18 c444 -186 456 -192 458 -201 3 -20 -876 -735 -888 -722 -3 2 2 78 10 169
8 90 21 256 30 369 28 376 36 465 41 497 l5 33 37 -16 c20 -9 159 -67 307
-129z"/>
<path d="M882 768 l3 -213 208 -3 207 -2 0 215 0 215 -210 0 -210 0 2 -212z
m398 2 l0 -190 -187 0 -188 0 2 182 c2 101 3 186 3 191 0 4 83 7 185 7 l185 0
0 -190z"/>
<path d="M1702 768 l3 -213 208 -3 207 -2 0 215 0 215 -210 0 -210 0 2 -212z
m398 2 l0 -190 -190 0 -189 0 1 183 c0 100 3 185 5 190 2 4 87 7 189 7 l184 0
0 -190z"/>
<path d="M2530 765 l0 -215 210 0 210 0 0 215 0 215 -210 0 -210 0 0 -215z
m400 5 l0 -190 -190 0 -190 0 0 190 0 190 190 0 190 0 0 -190z"/>
<path d="M3320 765 l0 -215 210 0 210 0 0 215 0 215 -210 0 -210 0 0 -215z
m400 5 l0 -190 -190 0 -190 0 0 190 0 190 190 0 190 0 0 -190z"/>
<path d="M4100 765 l0 -215 210 0 210 0 0 215 0 215 -210 0 -210 0 0 -215z
m400 5 l0 -190 -190 0 -190 0 0 190 0 190 190 0 190 0 0 -190z"/>
</g>
</svg>
