<?xml version="1.0" standalone="no"?>
<!DOCTYPE svg PUBLIC "-//W3C//DTD SVG 20010904//EN"
 "http://www.w3.org/TR/2001/REC-SVG-20010904/DTD/svg10.dtd">
<svg version="1.0" xmlns="http://www.w3.org/2000/svg"
 width="853.000000pt" height="811.000000pt" viewBox="0 0 853.000000 811.000000"
 preserveAspectRatio="xMidYMid meet">
<metadata>
Created by potrace 1.16, written by Peter Selinger 2001-2019
</metadata>
<g transform="translate(0.000000,811.000000) scale(0.100000,-0.100000)"
fill="#000000" stroke="none">
<path d="M3895 7530 c-71 -43 -246 -137 -390 -209 -237 -120 -280 -138 -480
-201 -121 -38 -312 -100 -424 -138 l-204 -68 -205 -295 c-367 -527 -474 -684
-485 -707 -9 -19 -3 -32 36 -90 26 -37 47 -70 47 -74 0 -4 -196 -343 -436
-755 -541 -926 -560 -962 -555 -1035 1 -9 52 -79 114 -155 62 -76 292 -358
510 -628 218 -269 434 -535 479 -591 46 -55 182 -224 303 -374 281 -349 273
-342 445 -478 80 -64 352 -285 605 -492 724 -592 996 -807 1049 -831 23 -11
32 -8 79 24 56 39 997 766 1347 1041 356 280 362 286 562 528 100 123 383 466
628 763 834 1010 920 1116 920 1139 0 12 -120 240 -266 506 -460 837 -644
1183 -635 1194 4 6 43 55 86 109 53 67 76 103 72 116 -5 19 -422 679 -632
1002 l-102 156 -69 17 c-38 10 -208 51 -379 91 l-310 74 -411 210 -411 210
-109 6 c-60 2 -230 7 -379 9 l-270 4 -130 -78z m453 -932 c-3 -644 -8 -971
-15 -988 -10 -25 -11 -25 -39 24 -16 27 -81 119 -145 205 -224 300 -889 1265
-889 1289 0 12 162 102 365 202 88 44 216 113 285 154 l125 75 158 0 159 1 -4
-962z m826 745 l425 -218 -16 -24 c-37 -58 -878 -1175 -941 -1249 -72 -87
-245 -228 -264 -216 -7 4 -8 249 -3 768 8 885 15 1117 34 1140 11 13 40 16
177 16 l163 0 425 -217z m-1924 -274 c39 -50 363 -518 713 -1034 63 -94 117
-179 118 -189 4 -17 -18 -26 -171 -73 -96 -29 -240 -72 -320 -95 l-144 -41
-41 45 c-35 39 -445 573 -799 1041 -69 92 -116 161 -110 166 20 19 670 242
694 238 8 -1 35 -27 60 -58z m2675 -14 c285 -66 368 -88 372 -102 2 -5 -20
-45 -48 -89 -79 -122 -827 -1198 -857 -1233 l-27 -32 -345 91 c-190 50 -349
95 -353 99 -8 8 110 172 578 801 377 507 396 530 420 525 11 -3 128 -30 260
-60z m28 -697 c-207 -293 -396 -562 -421 -597 -40 -57 -42 -62 -21 -56 81 24
654 237 1026 381 l62 24 34 -63 c122 -222 157 -289 157 -297 0 -5 -29 -59 -65
-120 -36 -61 -65 -113 -65 -115 0 -5 138 34 172 49 15 6 63 60 113 129 48 64
89 117 92 117 5 0 -17 -32 -109 -157 l-69 -93 -82 -24 c-45 -14 -95 -28 -111
-32 l-30 -7 26 44 c14 24 47 81 73 127 l48 82 -29 53 c-15 28 -56 104 -90 167
-34 63 -66 116 -72 118 -6 2 -125 -40 -264 -94 -139 -53 -363 -137 -498 -185
-339 -124 -329 -120 -335 -129 -6 -10 93 -58 413 -200 156 -69 229 -106 220
-112 -7 -4 -103 -38 -213 -74 l-200 -65 -52 55 c-29 31 -98 114 -153 186
l-102 130 138 198 c459 656 770 1092 779 1092 2 0 -166 -240 -372 -532z
m-2999 -142 c241 -313 440 -576 443 -585 2 -10 -22 -41 -65 -84 l-69 -69 -249
37 c-137 20 -251 39 -253 41 -2 2 -2 6 1 9 8 8 377 185 386 185 5 0 17 9 26
19 17 18 17 20 -1 29 -50 26 -925 324 -937 319 -16 -7 -83 -104 -172 -250
l-59 -99 -50 6 c-27 3 -65 6 -84 6 -27 0 -44 10 -84 50 -32 33 -47 55 -43 65
9 26 473 696 662 958 l19 27 45 -48 c25 -27 242 -304 484 -616z m-264 -280
c228 -81 416 -149 419 -152 10 -9 -43 -38 -369 -202 -466 -235 -497 -249 -513
-230 -70 88 -217 279 -231 299 -16 26 -16 27 81 187 130 214 160 255 181 249
9 -2 204 -70 432 -151z m3933 52 c24 -40 63 -107 85 -149 l41 -76 -130 -239
c-71 -131 -132 -241 -135 -243 -9 -10 -136 40 -389 151 -360 159 -520 237
-509 247 13 12 632 250 974 374 8 3 16 6 17 6 1 1 22 -32 46 -71z m-2460 -220
c14 -18 46 -70 72 -115 25 -46 51 -85 56 -89 15 -9 10 -126 -16 -357 -27 -231
-31 -257 -44 -257 -18 0 -579 464 -719 594 l-57 54 39 16 c22 9 154 50 295 92
141 41 267 79 281 84 47 16 68 11 93 -22z m790 -89 c177 -44 336 -87 354 -94
61 -26 51 -39 -168 -201 -387 -289 -650 -474 -674 -474 -18 0 -19 8 -60 337
-43 339 -48 307 63 399 63 52 150 114 160 114 3 0 149 -36 325 -81z m-2990 52
c4 -4 -20 -3 -53 2 -36 6 -65 6 -69 1 -11 -11 -861 -1468 -920 -1576 -24 -43
-47 -81 -53 -84 -6 -4 1 13 15 37 13 24 53 94 87 154 131 229 834 1431 853
1459 19 27 23 28 76 22 31 -4 59 -10 64 -15z m-9 -36 c-4 -9 6 -34 21 -57 35
-53 222 -293 239 -308 18 -14 53 0 281 110 l189 92 256 -37 c140 -19 261 -38
269 -40 20 -8 -560 -594 -618 -624 -81 -43 -451 -216 -1001 -468 -749 -344
-754 -346 -744 -319 3 8 11 13 18 10 6 -2 57 15 111 39 163 72 1192 546 1426
657 l217 102 296 297 297 297 -263 38 -263 37 -208 -100 c-114 -55 -217 -103
-230 -106 -12 -3 -29 0 -39 7 -22 18 -236 295 -254 331 -14 26 -13 57 0 57 3
0 3 -7 0 -15z m1731 -345 c284 -233 499 -415 529 -449 20 -22 20 -24 -3 -249
-31 -317 -65 -600 -73 -607 -7 -7 -160 80 -920 523 -280 163 -508 299 -508
303 0 5 156 166 346 359 227 229 350 347 358 342 6 -5 128 -105 271 -222z
m1931 -52 c435 -533 405 -494 386 -510 -27 -24 -70 -50 -666 -397 -601 -351
-754 -437 -763 -428 -8 9 -115 867 -110 881 3 6 209 158 458 337 432 310 486
348 500 349 3 0 91 -105 195 -232z m1317 200 c36 -49 341 -597 620 -1113 163
-303 190 -356 184 -362 -7 -6 -68 21 -487 215 -1085 503 -1183 550 -1223 594
-60 66 -287 351 -287 360 0 4 70 -79 157 -187 155 -193 157 -194 232 -231 116
-56 859 -404 1101 -516 362 -168 481 -220 487 -215 6 6 -123 247 -430 807
-326 593 -369 665 -395 664 -12 0 -22 3 -22 8 0 21 41 5 63 -24z m-2474 -968
c55 -410 112 -837 126 -950 34 -269 38 -295 87 -492 23 -92 40 -169 37 -171
-11 -9 -195 -134 -206 -141 -7 -4 -13 -5 -13 -3 0 3 48 38 106 77 98 67 106
74 100 99 -3 14 -22 87 -41 161 -38 147 -40 162 -119 765 -86 655 -190 1424
-192 1422 -5 -5 -183 -1499 -225 -1892 -10 -91 -18 -116 -86 -272 -41 -97 -71
-178 -67 -185 5 -10 4 -10 -6 -1 -11 10 1 45 62 185 l75 173 27 245 c65 579
198 1692 213 1775 l7 40 7 -45 c5 -25 53 -380 108 -790z m-1700 259 c42 -23
367 -208 724 -411 l647 -369 0 -37 c0 -20 -11 -138 -25 -262 -14 -124 -25
-246 -25 -271 0 -30 -6 -54 -17 -67 -10 -11 -155 -81 -323 -155 -429 -188
-507 -220 -522 -215 -7 3 -56 147 -111 324 -120 395 -381 1281 -408 1389 -11
44 -22 88 -25 98 -7 24 0 22 85 -24z m-325 -520 c-409 -1091 -575 -1543 -572
-1558 5 -22 21 19 343 854 384 995 408 1056 412 1052 3 -3 -141 -380 -567
-1482 -89 -231 -167 -426 -173 -433 -7 -9 -7 -16 2 -25 9 -9 14 -9 20 1 12 19
30 10 438 -211 197 -107 381 -206 408 -219 l50 -25 182 374 182 375 -39 152
c-34 131 -148 532 -391 1368 -34 119 -66 215 -71 212 -4 -3 -5 2 -2 11 4 9 8
14 11 11 10 -9 429 -1460 477 -1652 l26 -102 -181 -373 c-100 -206 -185 -378
-189 -382 -4 -5 -169 79 -366 186 -440 238 -521 279 -529 267 -8 -13 59 -55
345 -212 386 -213 499 -270 546 -279 48 -9 978 -450 1006 -478 17 -15 13 -31
-67 -294 -46 -153 -92 -305 -101 -338 -9 -32 -20 -59 -25 -59 -4 0 -160 123
-346 273 -186 150 -428 345 -538 433 -232 187 -246 203 -751 829 -463 573
-627 776 -1037 1273 -99 121 -121 151 -116 156 7 6 1509 696 1644 756 136 60
158 69 163 65 2 -1 -86 -238 -194 -526z m3836 389 c74 -33 212 -96 305 -141
94 -44 249 -115 345 -159 267 -121 791 -371 787 -375 -2 -1 -165 73 -363 166
-197 92 -444 208 -549 256 -104 48 -287 133 -405 187 -203 94 -290 131 -290
124 0 -15 685 -2014 692 -2022 2 -1 35 37 74 84 39 48 265 323 503 611 237
288 431 528 431 532 0 4 -9 11 -20 14 -11 3 -20 11 -20 16 0 5 11 2 25 -7 14
-9 25 -20 25 -25 0 -21 -1012 -1241 -1022 -1231 -15 15 -698 2005 -698 2034 0
13 29 3 180 -64z m-295 -5 c-34 -121 -543 -1683 -550 -1691 -6 -6 -264 100
-524 215 l-245 108 -39 310 -38 310 30 25 c17 15 113 73 213 129 101 57 230
132 288 166 96 57 554 316 779 442 52 29 97 51 99 48 2 -2 -4 -30 -13 -62z
m115 -33 c24 -64 542 -1600 575 -1706 5 -15 4 -16 -3 -4 -6 8 -137 392 -291
852 -154 460 -291 860 -304 890 l-24 53 -131 -395 c-72 -217 -201 -613 -287
-879 l-157 -484 20 -36 c11 -20 86 -160 167 -311 81 -151 153 -285 161 -297
l13 -21 218 83 c120 45 323 124 452 174 129 50 235 91 237 91 1 0 5 8 7 18 4
16 5 16 6 0 0 -10 -11 -24 -26 -31 -22 -12 -577 -226 -843 -326 -30 -11 -57
-17 -61 -13 -10 11 -359 661 -359 669 0 17 517 1599 562 1721 11 30 24 50 28
45 5 -4 23 -46 40 -93z m-2040 -1316 c0 -3 -23 -61 -51 -128 -55 -130 -89
-222 -89 -241 0 -7 88 -70 195 -140 107 -70 198 -131 201 -137 3 -5 -2 -74
-12 -153 l-17 -144 -181 -245 c-100 -134 -200 -266 -222 -293 l-42 -48 -17 30
c-9 17 -93 179 -187 360 -93 182 -221 429 -284 551 -63 121 -114 226 -114 232
0 15 70 55 167 97 94 40 592 250 613 258 21 8 40 8 40 1z m843 -154 c295 -126
502 -230 501 -252 -2 -17 -525 -1020 -581 -1111 -15 -26 -31 -47 -34 -47 -4 0
-58 66 -121 148 -222 285 -327 432 -338 470 -14 54 13 260 38 283 9 9 94 65
187 124 202 128 206 132 200 159 -9 44 -66 282 -71 299 -3 9 -2 17 1 17 4 0
102 -41 218 -90z m639 -415 c128 -235 250 -475 246 -486 -7 -20 -913 -487
-924 -477 -3 3 11 39 32 79 51 102 511 966 536 1007 24 40 17 48 110 -123z
m1162 -177 c-17 -27 -561 -688 -603 -732 -52 -55 -334 -282 -775 -625 -215
-167 -301 -229 -306 -219 -10 17 -151 497 -181 614 -12 49 -20 97 -17 106 4 8
246 136 540 282 501 251 557 276 938 426 223 87 406 159 408 159 2 1 0 -4 -4
-11z m-2180 -532 c250 -338 233 -311 203 -331 -13 -8 -119 -52 -236 -95 l-211
-80 -127 56 c-116 51 -282 131 -292 140 -6 6 36 66 214 305 196 262 223 293
242 278 7 -7 100 -129 207 -273z m-433 -452 c140 -69 158 -75 199 -71 25 3
139 40 253 82 115 42 214 74 222 71 16 -6 45 -93 150 -455 43 -148 72 -267 67
-270 -5 -3 -150 -116 -321 -251 -172 -135 -317 -247 -322 -248 -10 -4 -266
198 -497 392 -79 67 -152 127 -163 135 -10 7 -19 23 -19 34 0 22 82 296 161
534 l50 151 33 -13 c19 -8 103 -49 187 -91z"/>
<path d="M5446 5638 c-13 -18 -22 -38 -18 -44 16 -28 200 -261 242 -307 l45
-48 203 66 c112 37 202 68 200 70 -2 2 -122 55 -267 119 -145 65 -290 130
-322 146 l-58 30 -25 -32z"/>
<path d="M2318 6713 c-108 -152 -423 -606 -517 -746 l-52 -78 36 -45 c39 -47
45 -50 147 -59 l67 -5 58 96 c90 149 169 259 184 258 8 -1 226 -76 484 -166
400 -140 470 -167 470 -184 0 -21 1 -21 -240 -136 -149 -70 -167 -82 -145 -89
14 -4 121 -22 239 -39 l214 -31 66 65 c62 62 65 67 52 88 -15 25 -745 971
-868 1126 -40 50 -77 92 -82 92 -5 0 -56 -66 -113 -147z"/>
<path d="M3495 4935 c-159 -67 -164 -71 -128 -112 52 -59 276 -234 293 -228
32 12 183 101 213 126 l32 27 -20 22 c-25 28 -190 169 -231 197 l-30 22 -129
-54z m253 -93 l113 -94 -106 -59 -107 -59 -123 102 c-68 57 -123 106 -122 111
3 12 211 104 222 99 6 -3 61 -48 123 -100z"/>
<path d="M5018 4850 c-58 -61 -114 -127 -124 -145 -17 -31 -17 -36 -3 -50 17
-17 360 -88 382 -79 29 11 217 260 217 287 0 9 -45 25 -147 50 -242 59 -203
66 -325 -63z m305 26 c54 -13 100 -26 104 -29 7 -8 -15 -42 -95 -145 l-65 -83
-51 6 c-87 11 -261 47 -270 55 -9 9 -3 17 109 149 l70 82 50 -5 c28 -3 94 -17
148 -30z"/>
<path d="M2370 4677 c-124 -57 -521 -240 -882 -406 l-658 -303 20 -27 c12 -14
62 -76 113 -138 51 -62 267 -327 481 -590 214 -263 392 -481 395 -485 4 -4 39
79 79 185 39 105 211 565 382 1021 170 456 310 833 310 838 0 4 -3 8 -7 8 -5
0 -109 -47 -233 -103z"/>
<path d="M5422 2836 c-61 -104 -554 -1038 -549 -1042 9 -9 854 421 885 451 16
14 12 24 -171 365 -154 288 -140 269 -165 226z"/>
</g>
</svg>
